<svg id="Capa_1" data-name="Capa 1" xmlns="http://www.w3.org/2000/svg" viewBox="0 0 155 157"><defs><style>.cls-1{opacity:0.08;}.cls-2,.cls-3{stroke:#000;stroke-miterlimit:10;}.cls-2{stroke-width:2px;}</style></defs><title>grafismos</title>
<g class="cls-1">
<path class="cls-2" d="M77.5,154.19A.75.75,0,0,1,77,154L55.24,132.23H24.49a.72.72,0,0,1-.72-.72V100.76L2,79a.72.72,0,0,1,0-1L23.77,56.24V25.49a.72.72,0,0,1,.72-.72H55.24L77,3a.72.72,0,0,1,1,0L99.76,24.77h30.75a.72.72,0,0,1,.72.72V56.24L153,78a.72.72,0,0,1,0,1l-21.75,21.75v30.75a.72.72,0,0,1-.72.72H99.76L78,154A.75.75,0,0,1,77.5,154.19Zm-52.29-23.4H55.54a.74.74,0,0,1,.51.21L77.5,152.45,99,131a.74.74,0,0,1,.51-.21h30.33V100.46A.75.75,0,0,1,130,100L151.45,78.5,130,57.05a.74.74,0,0,1-.21-.51V26.21H99.46A.74.74,0,0,1,99,26L77.5,4.55,56.05,26a.74.74,0,0,1-.51.21H25.21V56.54a.74.74,0,0,1-.21.51L3.55,78.5,25,100a.75.75,0,0,1,.21.51Z"/>
<path class="cls-2" d="M77.5,144.45a1.07,1.07,0,0,1-.76-.32L58.05,125.45H31.63a1.09,1.09,0,0,1-1.08-1.08V98L11.87,79.26a1.06,1.06,0,0,1,0-1.52L30.55,59.05V32.63a1.09,1.09,0,0,1,1.08-1.08H58.05L76.74,12.87a1.07,1.07,0,0,1,1.52,0L97,31.55h26.42a1.09,1.09,0,0,1,1.08,1.08V59.05l18.68,18.69a1.06,1.06,0,0,1,0,1.52L124.45,98v26.42a1.09,1.09,0,0,1-1.08,1.08H97L78.26,144.13A1.07,1.07,0,0,1,77.5,144.45ZM32.71,123.29H58.5a1.07,1.07,0,0,1,.76.32L77.5,141.85l18.24-18.24a1.07,1.07,0,0,1,.76-.32h25.79V97.5a1.07,1.07,0,0,1,.32-.76L140.85,78.5,122.61,60.26a1.07,1.07,0,0,1-.32-.76V33.71H96.5a1.07,1.07,0,0,1-.76-.32L77.5,15.15,59.26,33.39a1.07,1.07,0,0,1-.76.32H32.71V59.5a1.07,1.07,0,0,1-.32.76L14.15,78.5,32.39,96.74a1.07,1.07,0,0,1,.32.76Z"/>
<path class="cls-3" d="M78.51,107.67a29.17,29.17,0,1,1,6.54-57.59,1.08,1.08,0,0,1-.16,2.13,21.85,21.85,0,0,0-8.71,2.5A22.09,22.09,0,1,0,96.83,93.77a21.76,21.76,0,0,0,7-5.78,1.08,1.08,0,0,1,1.38-.27,1.07,1.07,0,0,1,.47,1.33,29.13,29.13,0,0,1-27.14,18.62Zm-.38-56.19A27,27,0,1,0,100.6,94a25.85,25.85,0,0,1-2.76,1.7A24.25,24.25,0,0,1,75.17,52.8,25.2,25.2,0,0,1,78.13,51.48Z"/>
<path class="cls-3" d="M93.19,83.13a1.11,1.11,0,0,1-.5-.12L87.2,80.12,81.71,83a1.09,1.09,0,0,1-1.57-1.14l1-6.12-4.44-4.33a1.07,1.07,0,0,1,.59-1.83l6.14-.9,2.75-5.56a1.12,1.12,0,0,1,1.93,0l2.75,5.56,6.14.9a1.07,1.07,0,0,1,.6,1.83L93.2,75.75l1,6.12a1.06,1.06,0,0,1-.43,1A1,1,0,0,1,93.19,83.13Zm-6-5.31a1,1,0,0,1,.5.13l4.06,2.13L91,75.56a1.07,1.07,0,0,1,.31-1l3.29-3.2L90,70.75a1.11,1.11,0,0,1-.81-.59L87.2,66l-2,4.12a1.13,1.13,0,0,1-.81.59l-4.54.66,3.28,3.2a1.07,1.07,0,0,1,.31,1l-.77,4.52,4-2.13A1,1,0,0,1,87.2,77.82Z"/>
</g></svg>